<?xml version="1.0" encoding="UTF-8" standalone="no"?>
<!DOCTYPE svg PUBLIC "-//W3C//DTD SVG 1.1//EN" "http://www.w3.org/Graphics/SVG/1.1/DTD/svg11.dtd">
<svg width="100%" height="100%" viewBox="0 0 1000 1000" version="1.1" xmlns="http://www.w3.org/2000/svg" xmlns:xlink="http://www.w3.org/1999/xlink" xml:space="preserve" xmlns:serif="http://www.serif.com/" style="fill-rule:evenodd;clip-rule:evenodd;stroke-linejoin:round;stroke-miterlimit:2;">
    <g transform="matrix(2.62506,0,0,2.62506,122.575,54.624)">
        <path d="M0,95.718L287.374,95.718C288.425,95.718 289.507,95.718 290.557,95.568C294.614,94.969 296.638,93.244 296.9,89.159C297.086,86.086 296.823,82.901 296.179,79.903C293.827,68.846 288.053,59.59 280.812,51.156C268.302,36.54 252.706,26.158 235.317,18.289C209.945,6.782 183.074,1.836 155.384,0.749C136.748,0 118.2,0.899 99.762,4.047C78.808,7.607 58.761,13.792 40.137,24.173C26.192,31.968 13.791,41.599 3.97,54.305C-3.04,63.375 -8.246,73.269 -9.481,84.925C-10.27,92.571 -7.611,95.718 0,95.718" style="fill:rgb(255,133,51);fill-rule:nonzero;"/>
    </g>
    <g transform="matrix(2.62506,0,0,2.62506,883.638,944.664)">
        <path d="M0,-55.086C-1.236,-55.119 -2.516,-55.119 -3.751,-55.119L-259.65,-55.119C-270.324,-55.119 -281.01,-55.163 -291.694,-55.086C-297.534,-55.053 -300.235,-51.783 -299.372,-46.02C-298.365,-39.195 -294.647,-33.87 -290.01,-29.112C-282.169,-21.128 -272.501,-16.142 -262.122,-12.478C-247.205,-7.229 -231.687,-4.56 -215.982,-3.215C-201.186,-1.946 -186.345,-0.929 -171.504,-0.59C-141.483,0.077 -111.42,0.044 -81.476,-2.657C-69.522,-3.74 -57.679,-5.282 -45.987,-7.94C-34.516,-10.564 -23.35,-14.118 -13.266,-20.418C-6.037,-24.956 0.372,-30.424 4.353,-38.146C5.73,-40.803 6.595,-43.843 7.087,-46.807C7.874,-51.783 5.02,-54.856 0,-55.086" style="fill:rgb(255,133,51);fill-rule:nonzero;"/>
    </g>
    <g transform="matrix(2.62506,0,0,2.62506,537.644,624.624)">
        <path d="M0,16.01C1.946,15.485 2.362,17.465 3.04,18.712C7.305,26.947 11.505,35.269 15.813,43.482C17.17,46.063 18.701,48.612 20.538,50.864C25.109,56.595 31.256,58.017 38.036,56.07C44.598,54.233 47.78,49.289 48.874,42.804C49.061,41.754 49.17,40.704 49.17,39.655C49.17,19.116 49.213,-1.419 49.17,-21.956C49.17,-26.454 48.043,-30.689 44.894,-34.025C40.257,-39.01 34.405,-39.871 28.183,-37.923C21.884,-35.973 18.592,-31.027 18.144,-24.768C17.618,-17.122 17.881,-9.44 17.728,-1.756C17.694,-0.369 18.405,1.617 16.383,2.066C14.578,2.442 14.162,0.53 13.571,-0.67C9.252,-8.989 5.14,-17.385 0.678,-25.593C-1.159,-28.928 -3.303,-32.338 -6.037,-34.925C-13.496,-42.007 -26.499,-39.309 -30.622,-29.903C-31.814,-27.204 -32.383,-24.018 -32.459,-21.02C-32.678,-10.976 -32.536,-0.931 -32.536,9.153L-32.536,38.944C-32.536,40.628 -32.416,42.323 -32.12,43.964C-30.841,51.684 -25.34,56.562 -17.619,56.858C-9.668,57.164 -3.752,52.844 -1.914,45.243C-1.39,43.067 -1.236,40.781 -1.203,38.572C-1.127,32.273 -1.203,25.941 -1.127,19.641C-1.127,18.296 -1.685,16.459 0,16.01" style="fill:rgb(214,35,0);fill-rule:nonzero;"/>
    </g>
    <g transform="matrix(2.62506,0,0,2.62506,139.771,521.036)">
        <path d="M0,96.1C8.17,96.133 14.283,91.189 15.596,83.053C16.153,79.761 16.044,76.349 16.229,72.97L16.077,72.97C16.077,70.235 16.011,67.469 16.153,64.734C16.197,64.057 16.94,63.006 17.51,62.897C18.144,62.777 18.931,63.531 19.609,63.98C19.872,64.166 19.937,64.614 20.09,64.953C23.426,72.379 27.734,79.269 32.612,85.787C35.117,89.122 38.004,92.01 41.712,94C48.612,97.707 56.552,96.395 61.922,90.664C67.347,84.857 68.134,77.059 63.716,70.356C62.185,68.026 60.227,65.97 58.466,63.794C54.267,58.654 50.001,53.601 45.955,48.389C43.855,45.691 44.194,44.528 46.622,42.093C49.892,38.831 53.151,35.572 56.224,32.123C59.221,28.75 61.692,25.003 63.005,20.58C66.865,7.763 54.387,-1.607 44.117,0.867C39.283,2.029 35.948,5.177 33.279,9.225C29.987,14.284 26.685,19.381 23.272,24.365C22.19,25.94 20.91,27.439 19.489,28.75C18.931,29.313 17.771,29.688 17.062,29.462C16.536,29.313 16.229,28.113 16.011,27.327C15.858,26.689 15.968,25.977 15.968,25.265C15.858,21.405 16.044,17.507 15.519,13.684C14.546,6.526 9.22,1.354 2.592,0.492C-5.282,-0.52 -11.8,2.628 -14.469,9.337C-15.584,12.11 -16.152,15.258 -16.186,18.257C-16.295,38.269 -16.262,58.205 -16.229,78.11C-16.229,79.641 -16.076,81.215 -15.847,82.758C-14.469,90.96 -8.355,96.056 0,96.1" style="fill:rgb(214,35,0);fill-rule:nonzero;"/>
    </g>
    <g transform="matrix(2.62506,0,0,2.62506,852.748,546.827)">
        <path d="M0,82.491C14.283,75.962 19.86,62.138 18.854,48.982C18.023,38.227 11.921,31.518 1.345,29.494C-1.575,28.932 -4.615,28.894 -7.568,28.595L-7.568,28.97C-9.635,28.97 -11.734,28.783 -13.758,29.007C-19.073,29.644 -23.579,31.706 -25.449,37.215C-28.293,45.461 -22.824,53.138 -13.835,53.706C-12.971,53.74 -12.074,53.74 -11.242,54.002C-8.848,54.68 -8.17,57.075 -10.04,58.726C-11.024,59.59 -12.369,60.268 -13.638,60.487C-19.073,61.46 -27.625,59.514 -31.409,51.497C-34.964,43.962 -35.193,36.128 -31.967,28.445C-29.419,22.336 -24.552,18.813 -17.99,17.914C-13.343,17.239 -9.001,18.476 -4.801,20.536C-2.778,21.549 -0.492,22.411 1.728,22.561C7.677,23.048 12.894,19.488 14.873,14.016C16.831,8.657 15.103,2.323 10.422,-1.088C8.06,-2.811 5.468,-4.311 2.811,-5.398C-6.562,-9.22 -16.339,-10.083 -26.236,-8.395C-42.39,-5.697 -53.971,3.073 -59.811,18.588C-63.748,29.082 -64.24,39.949 -62.097,50.896C-55.688,84.098 -22.004,92.574 0,82.491" style="fill:rgb(214,35,0);fill-rule:nonzero;"/>
    </g>
    <g transform="matrix(2.62506,0,0,2.62506,334.386,557.358)">
        <path d="M0,68.954C1.641,76.97 7.754,82.078 15.814,82.296C24.278,82.526 30.545,77.911 32.602,69.741C33.17,67.455 33.355,65.06 33.389,62.698C33.465,53.326 33.422,43.954 33.422,34.587C33.422,25.218 33.465,15.849 33.389,6.479C33.389,4.493 33.279,2.469 32.907,0.519C31.398,-7.688 25.296,-13.01 17.269,-13.272C8.509,-13.572 2.1,-8.849 0.109,-0.455C-0.415,1.757 -0.568,4.118 -0.568,6.405C-0.602,25.143 -0.602,43.877 -0.568,62.621C-0.568,64.754 -0.415,66.898 0,68.954" style="fill:rgb(214,35,0);fill-rule:nonzero;"/>
    </g>
    <g transform="matrix(2.62506,0,0,2.62506,595.09,458.678)">
        <path d="M0,-28.184C2.022,-27.734 3.937,-26.684 5.927,-25.897C10.794,-23.911 16.043,-26.385 17.618,-31.407C18.854,-35.379 17.279,-39.764 13.681,-42.275C9.186,-45.386 4.09,-46.585 -1.27,-47.11C-15.771,-48.459 -28.184,-40.776 -32.448,-27.322C-33.805,-23.086 -34.209,-18.552 -35.04,-14.167C-34.888,-14.13 -34.778,-14.092 -34.625,-14.054C-34.472,-12.181 -34.362,-10.306 -34.177,-8.47C-32.678,6.483 -22.824,16.902 -7.907,18.476C8.956,20.275 21.14,9.669 20.242,-7.121C19.903,-13.642 16.076,-18.589 9.864,-20.239C5.807,-21.326 1.694,-21.4 -2.396,-20.688C-7.339,-19.826 -10.04,-16.341 -9.745,-11.431C-9.482,-7.196 -6.026,-4.047 -1.27,-3.786C0,-3.71 1.433,-3.673 1.65,-2.099C1.881,-0.45 0.645,0.337 -0.744,0.75C-1.346,0.936 -1.979,1.012 -2.581,1.049C-7.678,1.199 -11.845,-1.499 -13.682,-6.297C-15.476,-11.018 -15.585,-15.816 -13.868,-20.576C-11.725,-26.422 -6.07,-29.571 0,-28.184" style="fill:rgb(214,35,0);fill-rule:nonzero;"/>
    </g>
    <g transform="matrix(2.62506,0,0,2.62506,424.589,444.606)">
        <path d="M0,-16.19C0.044,-17.165 0,-18.177 0,-19.189C0,-19.638 -0.033,-20.051 0,-20.5C0.12,-22.037 -0.558,-23.911 1.618,-24.586C3.937,-25.298 6.856,-24.398 8.06,-22.711C9.372,-20.838 9.416,-17.839 8.137,-15.816C7.01,-13.979 4.691,-13.154 2.22,-13.566C0.711,-13.792 -0.077,-14.579 0,-16.19M2.285,1.311C3.379,0.937 3.98,1.799 4.199,2.849C4.309,3.411 4.386,3.973 4.571,4.497C6.004,8.433 7.054,12.518 8.957,16.19C10.313,18.739 12.599,20.988 14.917,22.711C18.11,25.036 21.774,24.736 25.109,22.599C28.38,20.539 29.943,17.39 29.156,13.642C28.675,11.356 27.439,9.145 26.203,7.083C24.257,3.822 22.004,0.749 19.98,-2.474C19.27,-3.561 19.303,-4.647 20.429,-5.66C26.422,-11.056 27.888,-17.989 26.466,-25.485C24.814,-34.105 18.745,-38.865 10.499,-40.252C4.647,-41.226 -1.422,-41.039 -7.415,-41.039C-14.841,-41.039 -18.657,-36.991 -18.657,-29.57L-18.657,12.593C-18.657,13.829 -18.548,15.104 -18.318,16.303C-17.466,21.025 -13.9,23.985 -9.143,24.098C-4.342,24.174 -0.635,21.437 0.383,16.79C0.754,15.104 0.754,13.342 0.787,11.581C0.863,8.77 0.711,5.959 0.863,3.148C0.974,2.474 1.695,1.499 2.285,1.311" style="fill:rgb(214,35,0);fill-rule:nonzero;"/>
    </g>
    <g transform="matrix(2.62506,0,0,2.62506,846.662,444.611)">
        <path d="M0,-15.703C-1.28,-13.604 -3.38,-13.342 -5.589,-13.53C-7.272,-13.68 -8.214,-14.542 -8.137,-16.341C-8.104,-17.278 -8.137,-18.214 -8.137,-19.151C-8.137,-19.601 -8.17,-20.013 -8.137,-20.464C-8.027,-22 -8.629,-23.874 -6.529,-24.586C-4.2,-25.373 -1.094,-24.473 0.032,-22.637C1.454,-20.314 1.378,-17.953 0,-15.703M18.581,7.345C16.48,4.422 14.349,1.499 12.479,-1.612C10.979,-4.085 11.242,-4.422 13.266,-6.41C13.977,-7.083 14.654,-7.87 15.212,-8.658C23.677,-20.426 18.209,-36.166 4.265,-39.99C-2.778,-41.938 -10.007,-41.413 -17.127,-40.889C-23.503,-40.439 -26.543,-36.504 -26.543,-30.058L-26.543,-8.508C-26.543,-1.087 -26.575,6.371 -26.543,13.791C-26.499,18.888 -23.798,22.636 -19.565,23.723C-12.817,25.447 -7.35,21.137 -7.131,13.866C-7.011,10.418 -7.087,7.008 -7.087,3.56C-7.087,2.473 -7.087,1.312 -5.589,1.199C-4.123,1.086 -3.981,2.211 -3.675,3.26C-2.482,7.046 -1.389,10.906 0.065,14.578C1.378,17.877 3.631,20.612 6.671,22.561C12.401,26.235 20.123,23.011 21.282,16.378C21.884,13.005 20.571,10.082 18.581,7.345" style="fill:rgb(214,35,0);fill-rule:nonzero;"/>
    </g>
    <g transform="matrix(2.62506,0,0,2.62506,142.729,452.673)">
        <path d="M0,-23.836L0,-26.272C0.032,-28.858 0.787,-29.57 3.444,-29.495C5.697,-29.42 7.677,-28.858 8.617,-26.534C9.559,-24.21 9.328,-21.961 7.754,-20.013C6.179,-18.064 3.894,-17.989 1.761,-18.551C1.05,-18.738 0.371,-19.863 0.109,-20.688C-0.187,-21.625 0.032,-22.749 0,-23.836C0.032,-23.836 0.032,-23.836 0,-23.836M9.963,1.649C9.109,4.422 7.119,5.659 3.598,5.659C0.524,5.659 0.032,5.173 0.032,2.1C0.032,0.225 0,-1.649 0.032,-3.485C0.076,-5.846 0.678,-6.409 3.073,-6.483C8.661,-6.67 11.505,-3.297 9.963,1.649M-17.356,9.257C-17.356,16.191 -13.835,20.089 -6.934,20.351C-0.94,20.576 5.063,20.538 11.057,20.239C16.076,19.976 20.462,17.914 23.983,14.242C30.501,7.496 31.551,-5.884 22.824,-12.892C21.774,-13.716 21.621,-14.391 22.562,-15.479C23.535,-16.603 24.355,-17.914 24.957,-19.263C29.79,-30.207 23.119,-42.2 11.057,-43.699C5.326,-44.412 -0.525,-44.186 -6.332,-44.149C-13.452,-44.186 -17.356,-40.139 -17.356,-33.092L-17.356,-11.918C-17.356,-4.871 -17.389,2.211 -17.356,9.257" style="fill:rgb(214,35,0);fill-rule:nonzero;"/>
    </g>
    <g transform="matrix(2.62506,0,0,2.62506,231.955,387.643)">
        <path d="M0,25.933C0.415,33.954 4.385,39.837 11.734,43.286C16.306,45.422 21.173,46.022 26.159,45.723C39.688,44.935 48.983,36.877 48.688,22.148C48.491,12.141 48.645,2.173 48.645,-7.834C48.645,-9.147 48.568,-10.458 48.35,-11.732C47.485,-16.529 43.92,-19.565 39.086,-19.677C34.296,-19.79 30.654,-17.016 29.604,-12.294C29.31,-10.983 29.232,-9.558 29.232,-8.209C29.2,-0.451 29.232,7.269 29.232,15.027C29.232,17.764 29.31,20.537 29.2,23.272C29.047,26.384 27.023,28.22 24.169,28.183C21.358,28.144 19.642,26.271 19.598,23.122C19.564,20.312 19.598,17.501 19.598,14.69C19.598,6.633 19.674,-1.425 19.564,-9.483C19.488,-15.255 15.923,-19.115 10.531,-19.603C5.358,-20.089 1.279,-17.053 0.229,-11.881C-0.033,-10.608 -0.033,-9.258 -0.033,-7.984C-0.077,-2.625 -0.033,2.772 -0.033,8.132L0.032,8.132C-0.077,14.09 -0.296,20.049 0,25.933" style="fill:rgb(214,35,0);fill-rule:nonzero;"/>
    </g>
    <g transform="matrix(2.62506,0,0,2.62506,690.315,336.78)">
        <path d="M0,64.723C6.19,64.836 12.369,64.762 18.548,64.723C19.598,64.723 20.691,64.612 21.697,64.349C24.891,63.562 27.21,61.725 28.183,58.502C30.097,52.244 26.127,46.697 19.456,46.434C16.339,46.322 13.189,46.434 10.083,46.397C7.983,46.36 7.426,45.61 7.426,43.211C7.426,40.775 7.951,40.101 10.083,40.063C12.445,40.026 14.841,40.101 17.203,40.026C21.03,39.876 23.907,37.74 24.814,34.479C26.236,29.157 22.868,24.66 17.126,24.359C14.841,24.248 12.522,24.359 10.192,24.322C8.017,24.285 7.426,23.61 7.426,21.286C7.426,18.963 7.983,18.363 10.236,18.326C13.233,18.288 16.229,18.363 19.227,18.288C23.721,18.139 27.023,15.815 28.15,12.142C30.13,5.658 26.007,0.149 18.931,-0.002C12.632,-0.113 6.299,-0.076 0,-0.002C-7.611,0.111 -11.473,4.047 -11.505,11.655C-11.538,18.513 -11.505,25.409 -11.505,32.267L-11.505,53.068C-11.429,60.714 -7.678,64.573 0,64.723" style="fill:rgb(214,35,0);fill-rule:nonzero;"/>
    </g>
</svg>
